<svg xmlns="http://www.w3.org/2000/svg" xmlns:xlink="http://www.w3.org/1999/xlink" id="Layer_1" x="0px" y="0px" viewBox="0 0 500 600" style="enable-background:new 0 0 500 600;" xml:space="preserve"><style type="text/css">	.st0{fill:#FFFFFF;}</style><path class="st0" d="M331.3,133.2c-22.6-7.3-50.8-11.6-81.3-11.6c-30.5,0-58.7,4.3-81.4,11.6c-60.2,19.4-101.6,59.5-101.6,106 c0,65.4,81.9,118.3,182.9,118.3c101,0,182.9-53,182.9-118.3C432.9,192.8,391.6,152.6,331.3,133.2 M250,306.7 c-15.1,0-27.4-29.6-28.1-66.9c9.1,0.8,18.5,1.3,28.1,1.3c9.6,0,19-0.4,28.1-1.3C277.4,277.1,265.1,306.7,250,306.7 M223.8,210.6 c4.1-26.1,14.3-44.7,26.2-44.7c11.9,0,22.1,18.5,26.2,44.7c-8.4,0.8-17.2,1.2-26.2,1.2C240.9,211.8,232.2,211.4,223.8,210.6  M292.2,208.7c-6.1-41-22.7-70.5-42.2-70.5c-19.5,0-36.1,29.4-42.2,70.5c-37.2-5.8-63.1-19-63.1-34.4c0-20.7,47.2-37.5,105.4-37.5 c58.2,0,105.3,16.8,105.3,37.5C355.4,189.7,329.4,202.9,292.2,208.7 M93.8,234.9c0-20,7.7-38.8,21.2-55c-0.2,1.1-0.2,2.3-0.2,3.4 c0,25.2,37.9,46.6,90.6,54.5c0,1.9-0.1,3.8-0.1,5.7c0,46.9,13,86.6,31,100.2C156.4,338.9,93.8,292.1,93.8,234.9 M263.8,343.8 c18-13.7,31-53.4,31-100.2c0-1.9,0-3.8-0.1-5.7c52.8-7.9,90.6-29.3,90.6-54.5c0-1.1-0.1-2.3-0.2-3.4c13.4,16.2,21.2,34.9,21.2,55 C406.2,292.1,343.6,338.9,263.8,343.8 M73.3,408.9H47.1l0,66.9H28.6l0-66.9H2.4v-15.7h71V408.9z M121.3,390.8 c-24.2,0-43.8,19.6-43.8,43.8c0,24.2,19.6,43.8,43.8,43.8c24.2,0,43.8-19.6,43.8-43.8C165.1,410.4,145.5,390.8,121.3,390.8  M142.8,447.8c-2.8,7.2-9.3,12.7-17.2,14c-1.4,0.2-2.8,0.4-4.3,0.4c-1.5,0-2.9-0.1-4.3-0.4c-7.8-1.4-14.3-6.8-17.2-14 c-1.6-4.1-2.5-8.6-2.5-13.3c0-4.7,0.9-9.2,2.5-13.3c2.8-7.2,9.3-12.7,17.2-14c1.4-0.3,2.8-0.4,4.3-0.4c1.5,0,2.9,0.1,4.3,0.4 c7.8,1.4,14.3,6.8,17.2,14c1.6,4.1,2.5,8.6,2.5,13.3C145.3,439.2,144.4,443.7,142.8,447.8 M165.4,393.2h21.9l20.4,35.5l20.5-35.5 h21.9l-33,52.1v30.6h-18.6v-30.6L165.4,393.2z M250.4,434.5c0-24.2,19.6-43.8,43.8-43.8c24.2,0,43.8,19.6,43.8,43.8 c0,24.2-19.6,43.8-43.8,43.8C270,478.4,250.4,458.7,250.4,434.5 M294.2,462.2c1.5,0,2.9-0.1,4.3-0.4c7.8-1.4,14.3-6.8,17.2-14 c1.6-4.1,2.5-8.6,2.5-13.3c0-4.7-0.9-9.1-2.5-13.3c-2.8-7.2-9.3-12.7-17.2-14c-1.4-0.2-2.8-0.4-4.3-0.4c-1.5,0-2.9,0.1-4.3,0.4 c-7.8,1.4-14.3,6.8-17.1,14c-1.6,4.1-2.5,8.6-2.5,13.3c0,4.7,0.9,9.2,2.5,13.3c2.8,7.2,9.3,12.7,17.1,14 C291.3,462.1,292.7,462.2,294.2,462.2 M470.2,457.6l-35.2,0l-6.8,18.2h-20.7l33.5-82.6h23.1l33.5,82.6H477L470.2,457.6L470.2,457.6z  M464.8,443.2l-12.2-32.6l-12.2,32.6H464.8z M413,408.9h-26.2v66.9h-18.6l0-66.9H342v-15.7h71V408.9z"></path></svg>